<?xml version="1.0" standalone="no"?>
<!DOCTYPE svg PUBLIC "-//W3C//DTD SVG 20010904//EN"
 "http://www.w3.org/TR/2001/REC-SVG-20010904/DTD/svg10.dtd">
<svg version="1.0" xmlns="http://www.w3.org/2000/svg"
 width="700.000000pt" height="700.000000pt" viewBox="0 0 700.000000 700.000000"
 preserveAspectRatio="xMidYMid meet">
<g transform="translate(0.000000,700.000000) scale(0.100000,-0.100000)"
fill="#000000" stroke="none">
<path d="M6295 6963 c-71 -19 -141 -37 -155 -39 -14 -3 -104 -25 -200 -50 -96
-24 -184 -46 -195 -49 -11 -2 -65 -15 -119 -30 -55 -14 -109 -27 -120 -29 -44
-9 -420 -102 -1019 -252 -585 -147 -721 -181 -757 -189 -8 -2 -206 -51 -440
-110 -358 -90 -753 -187 -810 -200 -8 -2 -287 -71 -620 -155 -333 -83 -666
-166 -740 -185 -74 -18 -182 -45 -240 -60 -58 -15 -109 -28 -115 -29 -63 -12
-735 -182 -735 -186 0 -3 74 -300 163 -660 l163 -655 2 -1676 c0 -921 3 -1695
6 -1720 13 -100 31 -161 77 -252 92 -186 246 -323 439 -392 127 -46 32 -44
2785 -44 1430 0 2620 4 2645 9 104 19 150 34 225 72 160 83 266 187 346 343
92 178 83 -6 87 1934 1 1131 -1 1717 -8 1721 -5 3 -1483 6 -3284 5 -1801 0
-3272 2 -3270 4 2 3 217 58 477 122 259 65 497 125 527 134 68 18 655 164 690
171 14 3 87 21 162 40 75 19 149 37 164 40 15 3 385 95 823 205 438 110 805
202 816 204 11 3 128 32 260 65 132 33 252 63 267 65 15 3 38 9 52 15 15 5 26
7 26 5 0 -2 11 0 25 5 14 5 36 12 48 14 12 2 69 16 127 31 58 15 112 28 120
30 35 7 303 74 735 181 253 64 469 117 480 120 84 18 556 141 561 146 3 4 -24
126 -61 272 -36 146 -68 273 -70 283 -2 10 -42 173 -90 363 -96 382 -93 370
-94 388 -1 16 -2 15 -156 -25z"/>
</g>
</svg>
