<svg xmlns="http://www.w3.org/2000/svg" width="256" height="384" viewBox="0 0 256 384">
  <defs>
    <linearGradient id="gradient" x1="0" x2="1.5">
      <stop offset="0%" stop-color="var(--c-primary)" />
      <stop offset="100%" stop-color="var(--c-secondary)" />
    </linearGradient>

    <style>
      :root {
        --c-primary: #6366f1; /* indigo 500 */
        --c-secondary: #d946ef; /* fuchsia 500 */
      }
      g {
        fill: url('#gradient');
        transform: scale(0.5) translate(50%, 66%);
      }
    </style>
  </defs>

  <g>
    <!-- i-ph-film-strip-duotone -->
    <path d="M32 176h192v24a8 8 0 0 1-8 8H40a8 8 0 0 1-8-8ZM216 48H40a8 8 0 0 0-8 8v24h192V56a8 8 0 0 0-8-8Z" opacity=".2"/>
    <path d="M216 40H40a16 16 0 0 0-16 16v144a16 16 0 0 0 16 16h176a16 16 0 0 0 16-16V56a16 16 0 0 0-16-16ZM40 88h80v80H40Zm96-16V56h32v16Zm-16 0H88V56h32Zm0 112v16H88v-16Zm16 0h32v16h-32Zm0-16V88h80v80Zm80-96h-32V56h32ZM72 56v16H40V56ZM40 184h32v16H40Zm176 16h-32v-16h32v16Z"/>
  </g>
</svg>