<svg xmlns="http://www.w3.org/2000/svg" width="256" height="384" viewBox="0 0 256 384">
  <defs>
    <linearGradient id="gradient" x1="0" x2="1.5">
      <stop offset="0%" stop-color="var(--c-primary)" />
      <stop offset="100%" stop-color="var(--c-secondary)" />
    </linearGradient>

    <style>
      :root {
        --c-primary: #6366f1; /* indigo 500 */
        --c-secondary: #d946ef; /* fuchsia 500 */
      }
      g {
        fill: url('#gradient');
        transform: scale(0.5) translate(50%, 66%);
      }
    </style>
  </defs>

  <g>
    <!-- i-ph-television-duotone -->
    <path d="M152 72v136H40a8 8 0 0 1-8-8V80a8 8 0 0 1 8-8Z" opacity=".2"/>
    <path d="M216 64h-68.69l34.35-34.34a8 8 0 1 0-11.32-11.32L128 60.69L85.66 18.34a8 8 0 0 0-11.32 11.32L108.69 64H40a16 16 0 0 0-16 16v120a16 16 0 0 0 16 16h176a16 16 0 0 0 16-16V80a16 16 0 0 0-16-16ZM40 80h104v120H40Zm176 120h-56V80h56v120Zm-16-84a12 12 0 1 1-12-12a12 12 0 0 1 12 12Zm0 48a12 12 0 1 1-12-12a12 12 0 0 1 12 12Z"/>
  </g>
</svg>